<svg xmlns="http://www.w3.org/2000/svg" xmlns:xlink="http://www.w3.org/1999/xlink" width="535" height="535" fill="none"><style>.D{fill:#fcea9c}.E{fill:#f0b90b}.F{fill:#f8d33a}.G{fill:#d0980b}.H{fill-rule:evenodd}.I{fill:#cb8c54}.J{fill:#2b2f36}.K{stroke-width:45.033}</style><g clip-path="url(#F)" filter="url(#A)"><path d="M188.156 47.2h83.03m133.987 179.36h83.03M188.156 59.867h83.03m133.987 179.359h83.03M86.832 212.488h64.735m-64.735 12.665h64.735m-64.735 12.665h64.735m-64.735 12.666h64.735M86.832 263.15h64.735m36.589-190.618h23.923M405.173 251.89h56.29m-56.29-45.032h40.81m-359.151-7.036h23.924" stroke-width="5.629" stroke="#f0b90b"/><path d="M392.296 107.01c0 37.375 17.35 67.674 38.75 67.674s38.75-30.3 38.75-67.674-17.35-67.675-38.75-67.675-38.75 30.3-38.75 67.675z" class="F"/><path d="M431.045 174.683c-21.2 0-38.75-30.3-38.75-67.675s17.548-67.674 38.75-67.674h-25.232c-21.4 0-38.75 30.3-38.75 67.675s17.35 67.675 38.75 67.675h25.232z" class="D"/><path d="M431.045 174.682c-21.2 0-38.75-30.3-38.75-67.675 0-16.458 3.403-31.544 9.022-43.276H376.02c-5.593 11.73-8.957 26.818-8.957 43.276 0 37.376 17.35 67.675 38.75 67.675h25.232z" class="D"/><path d="M401.318 150.284c7.14 14.91 17.862 24.4 29.727 24.4h-25.232c-11.976 0-22.684-9.5-29.792-24.4h25.297z" class="D"/><path d="M322.896 110.898l-51.34-51.34-51.34 51.34 51.34 51.34 51.34-51.34z" class="G"/><path d="M220.218 110.898l51.34 51.34v21.158l-51.34-51.34v-21.158z" class="D"/><path d="M322.897 110.898l-51.34 51.34v21.158l51.34-51.34v-21.158z" class="E"/><path d="M322.896 81.34L271.557 30l-51.34 51.34 51.34 51.34 51.34-51.34z" class="F"/><path d="M220.218 81.34l51.34 51.34v21.78l-51.34-51.34V81.34z" class="D"/><path d="M322.897 81.34l-51.34 51.34v21.78l51.34-51.34V81.34z" class="E"/><path d="M505 464.07H30V505h475v-40.93z" fill="url(#B)"/><path d="M386.953 385.746v-39.57a22.52 22.52 0 00-22.516-22.516h-35.553" stroke="#328dfd" class="K"/><path d="M333.104 345.953l31.332-.004v39.57h45.033v-39.57c0-20.7-13.953-38.122-32.963-43.397l-43.402 43.4z" fill="#1773eb" class="H"/><path d="M205.044 323.662h-45.558c-20.06 0-30.105-24.253-15.92-38.438l37.555-37.555" stroke="#328dfd" class="K"/><path d="M126.94 272.296l73.882 73.882h-41.336c-39.234 0-59.315-46.4-33.65-74.97l1.104 1.087z" fill="#1773eb" class="H"/><path d="M183.231 239.226h39.403v-39.403h-39.403z" class="I"/><path d="M267.138 321.683l20.58-20.537h41.167V464.39H205.027V301.146h41.53l20.58 20.537z" fill="url(#C)"/><path d="M362.658 464.39c0-12.047 9.766-21.813 21.812-21.813s21.813 9.766 21.813 21.813h-43.625z" class="J"/><path d="M384.47 457.352l27.442-27.44-27.442-27.442-27.442 27.442 27.442 27.44z" class="I"/><path transform="matrix(1 0 0 -1 188.155 441.873)" fill="url(#D)" d="M0 0h157.614v108.36H0z"/><path d="M241.632 382.767h50.662V484.1h-50.662z" class="J"/><path d="M221.93 478.462h90.065v5.63H221.93v-5.63z" class="J"/><path d="M229.67 249.077c0 20.207 16.38 36.59 36.59 36.59s36.59-16.382 36.59-36.59h-73.18z" class="I"/><path d="M229.67 249.076c0-20.207 16.38-36.59 36.59-36.59s36.59 16.382 36.59 36.59h-73.18z" fill="#0b0e11"/><use xlink:href="#G" class="G"/><path d="M179.627 110.9l-23.336 23.336v21.78l23.336-23.336V110.9z" class="D"/><path d="M132.955 110.9l23.336 23.336v21.78l-23.336-23.336V110.9z" class="E"/><path d="M76.95 110.898l23.336-23.336 23.336 23.336-23.336 23.336-23.336-23.336z" class="G"/><path d="M123.62 110.9l-23.336 23.336v21.78l23.336-23.336V110.9z" class="D"/><path d="M76.95 110.9l23.336 23.336v21.78L76.95 132.68V110.9z" class="E"/><path d="M104.953 138.902l23.336-23.336 23.336 23.336-23.336 23.336-23.336-23.336z" class="G"/><path d="M151.624 138.902l-23.336 23.336v21.78l23.336-23.336v-21.78z" class="D"/><path d="M104.952 138.9l23.336 23.337v21.78l-23.336-23.336V138.9z" class="E"/><path d="M104.953 53.337L128.29 30l23.336 23.336-23.336 23.336-23.336-23.336z" class="F"/><path d="M151.625 53.337l-23.337 23.336v21.78l23.337-23.336v-21.78z" class="D"/><path d="M104.952 53.337l23.336 23.336v21.78l-23.336-23.336v-21.78z" class="E"/><path d="M132.956 81.34l23.336-23.336 23.336 23.336-23.336 23.336-23.336-23.336z" class="F"/><path d="M179.627 81.34l-23.336 23.336v21.78l23.336-23.336V81.34z" class="D"/><path d="M132.955 81.34l23.336 23.336v21.78l-23.336-23.336V81.34z" class="E"/><path d="M76.95 81.34l23.336-23.336L123.62 81.34l-23.336 23.336L76.95 81.34z" class="F"/><path d="M123.62 81.34l-23.336 23.336v21.78l23.336-23.336V81.34z" class="D"/><path d="M76.95 81.34l23.336 23.336v21.78L76.95 103.12V81.34z" class="E"/><path d="M104.953 109.343l23.336-23.336 23.336 23.336-23.336 23.336-23.336-23.336z" class="F"/><path d="M151.625 109.343l-23.337 23.336v21.78l23.337-23.336v-21.78z" class="D"/><path d="M104.952 109.343l23.336 23.336v21.78l-23.336-23.336v-21.78z" class="E"/><path d="M333.333 243.333H376V286h-42.667v-42.667z" fill="url(#E)"/><path d="M354.667 72.667c-17.673 0-32 14.327-32 32v10.666H280v-10.666C280 63.43 313.43 30 354.667 30s74.667 33.43 74.667 74.667c0 20.613-8.38 39.31-21.87 52.797L376 188.928v22.406h-42.667v-40.08l43.96-43.96c5.814-5.814 9.373-13.785 9.373-22.627 0-17.673-14.327-32-32-32z" fill="url(#E)" class="H"/></g><defs><linearGradient id="B" x1="138.517" y1="355.552" x2="396.482" y2="613.517" gradientUnits="userSpaceOnUse"><stop stop-color="#f0b90b"/><stop offset="1" stop-color="#f8d33a"/></linearGradient><linearGradient id="C" x1="266.955" y1="464.389" x2="266.955" y2="301.146" gradientUnits="userSpaceOnUse"><stop stop-color="#1773eb"/><stop offset="1" stop-color="#328dfd"/></linearGradient><linearGradient id="D" x1="78.807" y1="0" x2="78.807" y2="108.36" gradientUnits="userSpaceOnUse"><stop stop-color="#474d57"/><stop offset="1" stop-color="#76808f"/></linearGradient><linearGradient id="E" x1="375.15" y1="286" x2="375.15" y2="30" gradientUnits="userSpaceOnUse"><stop stop-color="#e56700"/><stop offset="1" stop-color="#ff7e0d"/></linearGradient><clipPath id="F"><path fill="#fff" transform="translate(30 30)" d="M0 0h475v475H0z"/></clipPath><filter id="A" x="0" y="0" width="535" height="535" filterUnits="userSpaceOnUse" color-interpolation-filters="sRGB"><feFlood flood-opacity="0" result="A"/><feColorMatrix in="SourceAlpha" values="0 0 0 0 0 0 0 0 0 0 0 0 0 0 0 0 0 0 127 0"/><feOffset/><feGaussianBlur stdDeviation="15"/><feColorMatrix values="0 0 0 0 0 0 0 0 0 0 0 0 0 0 0 0 0 0 0.03 0"/><feBlend in2="A"/><feBlend in="SourceGraphic"/></filter><path id="G" d="M132.955 110.898l23.336-23.336 23.336 23.336-23.336 23.336-23.336-23.336z"/></defs></svg>