<svg xmlns="http://www.w3.org/2000/svg" xmlns:xlink="http://www.w3.org/1999/xlink" width="475" height="475" fill="none"><g clip-path="url(#K)"><path d="M334 185.146l-31-31 31-31 31 31-31 31z" fill="url(#A)"/><path d="M334 185.146l-31-31v27.9l31 31v-27.9z" fill="#f0b90b"/><path d="M334 185.146l31-31v27.9l-31 31v-27.9z" fill="#f8d33a"/><path d="M355 133.096l67-67" stroke="#929aa5" stroke-width="4"/><path d="M435.7 28.7v39.598h39.598V28.7H435.7z" fill="url(#B)"/><path d="M435.7 28.7v39.598l-16.9-16.9V11.8l16.9 16.9z" fill="#1773eb"/><path d="M435.7 28.7h39.598l-16.9-16.9H418.8l16.9 16.9z" fill="#328dfd"/><path d="M147 450.413h-21v-21h21v21z" fill="url(#C)"/><path d="M126 450.413v-21l-9 9v21l9-9z" fill="#e56700"/><path d="M126 450.413h21l-8.974 9H117l9-9z" fill="#ff7e0d"/><path d="M240 440.413h-84m166-56.97l-28.97 28.97" stroke="#929aa5" stroke-width="4"/><path d="M298.345 429.483l-24.748 24.75-24.75-24.75 24.75-24.748 24.748 24.748z" fill="url(#D)"/><path d="M273.597 454.232l-24.814-24.813v21.18l24.814 24.814v-21.18z" fill="#02c076"/><path d="M273.596 454.232L298.4 429.42v21.18l-24.814 24.814v-21.18z" fill="#28d294"/><path d="M355.778 354.276l-18.18 18.182-18.182-18.182 18.182-18.18 18.18 18.18z" fill="url(#E)"/><path d="M337.597 372.458l-18.23-18.23v15.56l18.23 18.23v-15.56z" fill="#0788a2"/><path d="M337.597 372.458l18.23-18.23v15.56l-18.23 18.23v-15.56z" fill="#12aab5"/><path d="M388 32.096h22" stroke="#929aa5" stroke-width="4"/><path d="M356.5 44.89L334 22.39l22.5-22.5 22.5 22.5-22.5 22.5z" fill="url(#F)"/><path d="M356.5 44.89L334 22.39v19.205l22.5 22.5V44.89z" fill="#d9304e"/><path d="M356.5 44.89l22.5-22.5v19.205l-22.5 22.5V44.89z" fill="#f84960"/><path d="M397 155h24v24h-24zM225 334h18v18h-18zm196 24l10-10 10 10-10 10-10-10zM233 29h12v12h-12zM84 367h12v12H84z" fill="#f5f5f5"/><path d="M407 112l8-8 8 8-8 8-8-8zM255 375l6-6 6 6-6 6-6-6z" fill="#f0b90b"/><path d="M277 257.5l4.5-4.5 4.5 4.5-4.5 4.5-4.5-4.5z" fill="#fff"/><g fill="#474d57"><path opacity=".5" d="M187.27 93h-79v21h79V93z"/><path d="M81.27 93h27v125h-27V93z"/></g><path d="M108.27 77c0-24.3 19.7-44 44-44s44 19.7 44 44v37h-88V77z" fill="url(#G)"/><path d="M196.27 199h-88v30h88v-30z" fill="#ff7e0d"/><path d="M60.27 268v40l-28 28v-68h28z" fill="#5e6673"/><g fill-rule="evenodd"><path d="M148.27 268v-47h-40v47h-48v40h48c22.09 0 40-17.908 40-40z" fill="#ff7e0d"/><path d="M229 235.716l-41.858-41.858-28.284 28.284L200.716 264l-35.858 35.858 28.284 28.284L229 292.285c15.62-15.62 15.62-40.948 0-56.57z" fill="url(#H)"/><path d="M131.314 136.313L98.83 168.798c-12.497 12.497-32.758 12.497-45.255 0L24.09 139.313l22.627-22.627L76.2 146.17l32.486-32.485 22.627 22.627z" fill="url(#I)"/></g><path d="M28 93v28H0V93h28z" fill="#929aa5"/><path fill-rule="evenodd" d="M278.334 102.563l-34.063 34.064A32.006 32.006 0 01221.643 146H167.77v-32h53.873l34.064-34.064 22.627 22.627z" fill="url(#J)"/><path d="M196.27 114h-88v87.96h88V114z" fill="#ff7e0d"/><path d="M274.226 56.074v28h28v-28h-28z" fill="#929aa5"/><path d="M156.27 229V114h4v115h-4zm-32-86h21v-4h-21v4z" fill="#5e6673" fill-rule="evenodd"/><path d="M178.958 130l-11.314 11.314 11.314 11.313 11.313-11.313L178.958 130z" fill="#f8d33a"/><path d="M81.27 51h4v42h-4V51z" fill="#474d57"/><path d="M165.8 299.2l28.284 28.284v39.598L146 319l19.8-19.8z" fill="#5e6673"/><path d="M152.27 50.963c14.36 0 26 11.64 26 26s-11.64 26-26 26v-52zm0 0c-14.36 0-26 11.64-26 26s11.64 26 26 26v-52z" fill="#935a30"/></g><defs><linearGradient id="A" x1="303" y1="154.146" x2="365" y2="154.146" xlink:href="#L"><stop stop-color="#f0b90b"/><stop offset="1" stop-color="#f8d33a"/></linearGradient><linearGradient id="B" x1="435.699" y1="68.297" x2="475.297" y2="28.699" xlink:href="#L"><stop stop-color="#1773eb"/><stop offset="1" stop-color="#328dfd"/></linearGradient><linearGradient id="C" x1="147" y1="450.413" x2="126" y2="429.413" xlink:href="#L"><stop stop-color="#ff7e0d"/><stop offset="1" stop-color="#e56700"/></linearGradient><linearGradient id="D" x1="248.848" y1="429.483" x2="298.345" y2="429.483" xlink:href="#L"><stop stop-color="#02c076"/><stop offset="1" stop-color="#28d294"/></linearGradient><linearGradient id="E" x1="319.415" y1="354.276" x2="355.778" y2="354.276" xlink:href="#L"><stop stop-color="#0788a2"/><stop offset="1" stop-color="#12aab5"/></linearGradient><linearGradient id="F" x1="334" y1="22.391" x2="379" y2="22.391" xlink:href="#L"><stop stop-color="#d9304e"/><stop offset="1" stop-color="#f84960"/></linearGradient><linearGradient id="G" x1="152.27" y1="33" x2="152.27" y2="93.5" xlink:href="#L"><stop stop-color="#e6e8ea"/><stop offset="1" stop-color="#e6e8ea" stop-opacity="0"/></linearGradient><linearGradient id="H" x1="163.065" y1="207.759" x2="222.711" y2="311.071" xlink:href="#L"><stop stop-color="#ff7e0d"/><stop offset="1" stop-color="#e56700"/></linearGradient><linearGradient id="I" x1="108.5" y1="161.605" x2="41" y2="161.605" xlink:href="#L"><stop stop-color="#e56700"/><stop offset="1" stop-color="#ff7e0d"/></linearGradient><linearGradient id="J" x1="196" y1="115" x2="263" y2="115" xlink:href="#L"><stop stop-color="#e56700"/><stop offset="1" stop-color="#ff7e0d"/></linearGradient><linearGradient id="L" gradientUnits="userSpaceOnUse"/><clipPath id="K"><path fill="#fff" d="M0 0h475v475H0z"/></clipPath></defs></svg>