<svg width="535" height="535" fill="none" xmlns="http://www.w3.org/2000/svg"><g clip-path="url(#clip0)" filter="url(#filter0_d)"><path transform="matrix(1 0 0 -1 359 505)" fill="url(#paint0_linear)" d="M0 0h34v193H0z"/><path d="M505 230.634C505 184.997 468.003 148 422.365 148H276.026L276 312.002h229v-81.368z" fill="url(#paint1_linear)"/><path d="M276.5 148c-45.563 0-82.5 36.713-82.5 82v82h165v-82c0-45.287-36.937-82-82.5-82z" fill="url(#paint2_linear)"/><path fill-rule="evenodd" clip-rule="evenodd" d="M356.703 211H227.975v101.654H359v-82.289c0-6.67-.795-13.155-2.297-19.365z" fill="#fff"/><path d="M359 217l-96 96h96v-96z" fill="url(#paint3_linear)" opacity=".1"/><path d="M276.5 394c-45.563 0-82.5-36.713-82.5-82h165c0 45.287-36.937 82-82.5 82z" fill="url(#paint4_linear)"/><path d="M424 93h47v39h-47V93z" fill="url(#paint5_linear)"/><path transform="matrix(1 0 0 -1 242 255)" fill="url(#paint6_linear)" d="M0 0h30v30H0z"/><path d="M359 255h-64m127-15V93m-63 186h-64" stroke="#2B2F36" stroke-width="4"/><path d="M505 224l-88 88h88v-88z" fill="url(#paint7_linear)" opacity=".3"/><path d="M283 505l18-18 18 18-18 18-18-18zm204 0l9-9 9 9-9 9-9-9zm-457 0l9-9 9 9-9 9-9-9z" fill="#474D57"/><path d="M159 131l19 19 19-19-19-19-19 19z" fill="url(#paint8_linear)"/><path d="M30 191l5 5 5-5-5-5-5 5zm118 43.5l8.5 8.5 8.5-8.5-8.5-8.5-8.5 8.5z" fill="#F0B90B"/><path d="M113 274l15 15 15-15-15-15-15 15zM293 78l7 7 7-7-7-7-7 7zM180 416l7 7 7-7-7-7-7 7z" fill="#fff"/></g><defs><linearGradient id="paint0_linear" x1="15.011" y1="10.158" x2="15.011" y2="193" gradientUnits="userSpaceOnUse"><stop stop-color="#474D57"/><stop offset="1" stop-color="#2B2F36"/></linearGradient><linearGradient id="paint1_linear" x1="390.5" y1="312.002" x2="390.5" y2="148" gradientUnits="userSpaceOnUse"><stop offset=".333" stop-color="#F0B90B"/><stop offset="1" stop-color="#FBDA3C"/></linearGradient><linearGradient id="paint2_linear" x1="194.403" y1="199.924" x2="358.89" y2="199.924" gradientUnits="userSpaceOnUse"><stop stop-color="#474D57"/><stop offset="1" stop-color="#14151A"/></linearGradient><linearGradient id="paint3_linear" x1="359" y1="265" x2="263" y2="265" gradientUnits="userSpaceOnUse"><stop/><stop offset="1" stop-opacity="0"/></linearGradient><linearGradient id="paint4_linear" x1="276.5" y1="312" x2="276.5" y2="394" gradientUnits="userSpaceOnUse"><stop offset=".333" stop-color="#F0B90B"/><stop offset="1" stop-color="#FBDA3C"/></linearGradient><linearGradient id="paint5_linear" x1="447.5" y1="132" x2="447.5" y2="93" gradientUnits="userSpaceOnUse"><stop offset=".333" stop-color="#F0B90B"/><stop offset="1" stop-color="#FBDA3C"/></linearGradient><linearGradient id="paint6_linear" x1="15" y1="0" x2="15" y2="30" gradientUnits="userSpaceOnUse"><stop offset=".333" stop-color="#F0B90B"/><stop offset="1" stop-color="#FBDA3C"/></linearGradient><linearGradient id="paint7_linear" x1="505" y1="268" x2="417" y2="268" gradientUnits="userSpaceOnUse"><stop/><stop offset="1" stop-opacity="0"/></linearGradient><linearGradient id="paint8_linear" x1="178" y1="150" x2="178" y2="112" gradientUnits="userSpaceOnUse"><stop stop-color="#F0B90B"/><stop offset="1" stop-color="#F8D33A"/></linearGradient><clipPath id="clip0"><path fill="#fff" transform="translate(30 30)" d="M0 0h475v475H0z"/></clipPath><filter id="filter0_d" x="0" y="0" width="535" height="535" filterUnits="userSpaceOnUse" color-interpolation-filters="sRGB"><feFlood flood-opacity="0" result="BackgroundImageFix"/><feColorMatrix in="SourceAlpha" values="0 0 0 0 0 0 0 0 0 0 0 0 0 0 0 0 0 0 127 0"/><feOffset/><feGaussianBlur stdDeviation="15"/><feColorMatrix values="0 0 0 0 0 0 0 0 0 0 0 0 0 0 0 0 0 0 0.03 0"/><feBlend in2="BackgroundImageFix" result="effect1_dropShadow"/><feBlend in="SourceGraphic" in2="effect1_dropShadow" result="shape"/></filter></defs></svg>