<svg width="306" height="306" viewBox="0 0 306 306" fill="none" xmlns="http://www.w3.org/2000/svg">
<g opacity="0.8">
<mask id="path-1-inside-1_2060_66480" fill="white">
<path d="M184.19 19H119.314L22 118.098V189.556L119.314 287H188.557L284 186.033V118.098L184.19 19Z"/>
</mask>
<path d="M184.19 19H119.314L22 118.098V189.556L119.314 287H188.557L284 186.033V118.098L184.19 19Z" fill="url(#paint0_linear_2060_66480)"/>
<path d="M184.19 19V17.2823H184.898L185.401 17.781L184.19 19ZM22 118.098H20.2823V117.395L20.7744 116.894L22 118.098ZM119.314 287V288.718H118.602L118.099 288.214L119.314 287ZM284 186.033H285.718V186.716L285.248 187.213L284 186.033ZM119.314 19L118.089 17.7965L118.594 17.2823H119.314V19ZM22 189.556L20.7846 190.77L20.2823 190.267V189.556H22ZM188.557 287L189.805 288.18L189.297 288.718H188.557V287ZM284 118.098L285.21 116.879L285.718 117.383V118.098H284ZM184.19 20.7177H119.314V17.2823H184.19V20.7177ZM120.54 20.2035L23.2256 119.301L20.7744 116.894L118.089 17.7965L120.54 20.2035ZM23.7177 118.098V189.556H20.2823V118.098H23.7177ZM23.2154 188.343L120.53 285.786L118.099 288.214L20.7846 190.77L23.2154 188.343ZM119.314 285.283H188.557V288.718H119.314V285.283ZM187.309 285.82L282.752 184.853L285.248 187.213L189.805 288.18L187.309 285.82ZM282.282 186.033V118.098H285.718V186.033H282.282ZM282.79 119.317L182.98 20.219L185.401 17.781L285.21 116.879L282.79 119.317Z" fill="white" mask="url(#path-1-inside-1_2060_66480)"/>
<path d="M184.19 19V17.2823H184.898L185.401 17.781L184.19 19ZM22 118.098H20.2823V117.395L20.7744 116.894L22 118.098ZM119.314 287V288.718H118.602L118.099 288.214L119.314 287ZM284 186.033H285.718V186.716L285.248 187.213L284 186.033ZM119.314 19L118.089 17.7965L118.594 17.2823H119.314V19ZM22 189.556L20.7846 190.77L20.2823 190.267V189.556H22ZM188.557 287L189.805 288.18L189.297 288.718H188.557V287ZM284 118.098L285.21 116.879L285.718 117.383V118.098H284ZM184.19 20.7177H119.314V17.2823H184.19V20.7177ZM120.54 20.2035L23.2256 119.301L20.7744 116.894L118.089 17.7965L120.54 20.2035ZM23.7177 118.098V189.556H20.2823V118.098H23.7177ZM23.2154 188.343L120.53 285.786L118.099 288.214L20.7846 190.77L23.2154 188.343ZM119.314 285.283H188.557V288.718H119.314V285.283ZM187.309 285.82L282.752 184.853L285.248 187.213L189.805 288.18L187.309 285.82ZM282.282 186.033V118.098H285.718V186.033H282.282ZM282.79 119.317L182.98 20.219L185.401 17.781L285.21 116.879L282.79 119.317Z" fill="url(#paint1_linear_2060_66480)" mask="url(#path-1-inside-1_2060_66480)"/>
</g>
<defs>
<linearGradient id="paint0_linear_2060_66480" x1="132.012" y1="65.8948" x2="279.469" y2="246.203" gradientUnits="userSpaceOnUse">
<stop stop-color="#2B2F36"/>
<stop offset="0.510417" stop-color="#2B2F36" stop-opacity="0"/>
<stop offset="1" stop-color="#2B2F36"/>
</linearGradient>
<linearGradient id="paint1_linear_2060_66480" x1="116.509" y1="41.4666" x2="233.785" y2="292.904" gradientUnits="userSpaceOnUse">
<stop stop-color="#474D57"/>
<stop offset="0.67079" stop-color="#1E2026"/>
<stop offset="0.996651" stop-color="#474D57"/>
</linearGradient>
</defs>
</svg>
