<svg width="50" height="51" viewBox="0 0 50 51" fill="none" xmlns="http://www.w3.org/2000/svg">
<path d="M19.2857 1.5H31.1714L49 19.2488V32.0474L31.1714 49.5H18.4857L1 31.4163V19.2488L19.2857 1.5Z" fill="white" fill-opacity="0.1" stroke="#2D343C" stroke-width="2"/>
<g opacity="0.2">
<path fill-rule="evenodd" clip-rule="evenodd" d="M35 33.5H15V17.5H35V33.5ZM17 20.5H24V26.5H17V20.5ZM26 20.5H30V22.5H26V20.5Z" fill="url(#paint0_linear_994_39456)"/>
<path d="M20.5 25.5C21.6046 25.5 22.5 24.6046 22.5 23.5C22.5 22.3954 21.6046 21.5 20.5 21.5C19.3954 21.5 18.5 22.3954 18.5 23.5C18.5 24.6046 19.3954 25.5 20.5 25.5Z" fill="#76808F"/>
<path d="M24 30.5V26.5H17V30.5H24Z" fill="#76808F"/>
<path d="M26 24.5H33V26.5H26V24.5Z" fill="#76808F"/>
<path d="M33 28.5H26V30.5H33V28.5Z" fill="#76808F"/>
</g>
<defs>
<linearGradient id="paint0_linear_994_39456" x1="25" y1="33.5" x2="25" y2="17.5" gradientUnits="userSpaceOnUse">
<stop stop-color="#F0B90B"/>
<stop offset="1" stop-color="#F8D33A"/>
</linearGradient>
</defs>
</svg>
