<svg width="50" height="51" viewBox="0 0 50 51" fill="none" xmlns="http://www.w3.org/2000/svg">
<path d="M19.2857 1.5H31.1714L49 19.2488V32.0474L31.1714 49.5H18.4857L1 31.4163V19.2488L19.2857 1.5Z" fill="white" fill-opacity="0.1" stroke="#2D343C" stroke-width="2"/>
<g opacity="0.2">
<rect width="8.5" height="4.5" transform="matrix(1 0 0 -1 15 23.75)" fill="url(#paint0_linear_994_39487)"/>
<rect x="35" y="23.75" width="8.5" height="4.5" transform="rotate(-180 35 23.75)" fill="url(#paint1_linear_994_39487)"/>
<rect width="7.5" height="10.75" transform="matrix(1 0 0 -1 16 34.5)" fill="url(#paint2_linear_994_39487)"/>
<rect x="34" y="34.5" width="7.5" height="10.75" transform="rotate(-180 34 34.5)" fill="url(#paint3_linear_994_39487)"/>
<rect x="24.5" y="19.25" width="1" height="4.5" fill="url(#paint4_linear_994_39487)"/>
<rect x="24.5" y="23.75" width="1" height="10.75" fill="url(#paint5_linear_994_39487)"/>
<path d="M25.5 15.5H24.5V17.5429L23.1036 16.1465L22.3965 16.8536L23.7929 18.25L21.75 18.25V19.25L28.25 19.25V18.25H26.2071L27.6035 16.8536L26.8964 16.1465L25.5 17.5429V15.5Z" fill="url(#paint6_linear_994_39487)"/>
<path opacity="0.3" d="M31 16.5L32 17.5L33 16.5L32 15.5L31 16.5Z" fill="#AEB4BC"/>
<path opacity="0.3" d="M13.5 26.25L14.25 27L15 26.25L14.25 25.5L13.5 26.25Z" fill="#AEB4BC"/>
<path opacity="0.3" d="M28.5 36.25H29.25V35.5H28.5V36.25Z" fill="#AEB4BC"/>
</g>
<defs>
<linearGradient id="paint0_linear_994_39487" x1="4.25" y1="0" x2="4.25" y2="4.5" gradientUnits="userSpaceOnUse">
<stop stop-color="#F0B90B"/>
<stop offset="1" stop-color="#F8D33A"/>
</linearGradient>
<linearGradient id="paint1_linear_994_39487" x1="39.25" y1="23.75" x2="39.25" y2="28.25" gradientUnits="userSpaceOnUse">
<stop stop-color="#F0B90B"/>
<stop offset="1" stop-color="#F8D33A"/>
</linearGradient>
<linearGradient id="paint2_linear_994_39487" x1="3.75" y1="0" x2="3.75" y2="10.75" gradientUnits="userSpaceOnUse">
<stop stop-color="#F0B90B"/>
<stop offset="1" stop-color="#F8D33A"/>
</linearGradient>
<linearGradient id="paint3_linear_994_39487" x1="37.75" y1="34.5" x2="37.75" y2="45.25" gradientUnits="userSpaceOnUse">
<stop stop-color="#F0B90B"/>
<stop offset="1" stop-color="#F8D33A"/>
</linearGradient>
<linearGradient id="paint4_linear_994_39487" x1="25" y1="19.25" x2="25" y2="23.75" gradientUnits="userSpaceOnUse">
<stop stop-color="#929AA5"/>
<stop offset="1" stop-color="#76808F"/>
</linearGradient>
<linearGradient id="paint5_linear_994_39487" x1="25" y1="23.75" x2="25" y2="34.5" gradientUnits="userSpaceOnUse">
<stop stop-color="#929AA5"/>
<stop offset="1" stop-color="#76808F"/>
</linearGradient>
<linearGradient id="paint6_linear_994_39487" x1="25" y1="19.25" x2="25" y2="15.5" gradientUnits="userSpaceOnUse">
<stop stop-color="#929AA5"/>
<stop offset="1" stop-color="#76808F"/>
</linearGradient>
</defs>
</svg>
